<svg width="717" height="111" viewBox="0 0 717 111" fill="none" xmlns="http://www.w3.org/2000/svg">
<path d="M119.739 2.18354C105.808 6.03396 95.4085 14.1198 88.825 26.3449C74.2269 53.2979 82.5278 88.0479 106.763 101.717C124.318 111.632 142.828 112.209 160.289 103.353C170.403 98.2515 177.845 90.2619 182.234 79.8658C183.856 76.2079 185.096 72.935 185.096 72.6462C185.096 72.2612 178.894 72.0687 171.357 72.0687H157.617L155.709 75.149C154.564 76.8817 151.416 79.7695 148.553 81.5022C144.26 84.1012 141.97 84.775 136.15 85.2563C129.948 85.7376 128.421 85.5451 123.841 83.4274C106.858 75.534 102.278 47.0409 115.731 32.4093C122.887 24.516 132.906 22.1095 143.878 25.5748C147.981 26.9225 150.08 28.3664 153.515 32.3131L157.904 37.4149H171.929H185.955L184.524 33.2757C183.76 31.0617 181.089 26.1524 178.704 22.3982C166.968 4.39753 142.256 -4.16965 119.739 2.18354Z" fill="primary.300"/>
<path d="M207.98 80.9504L207.977 80.9439C198.081 63.4506 199.887 39.0167 212.278 22.6549C219.575 13.0205 233.273 5.24719 246.033 3.40619C249.742 2.88521 253.055 2.5841 255.463 2.51537C255.977 2.50067 256.437 2.49707 256.84 2.50291C256.752 2.78647 256.654 3.09509 256.545 3.42776C255.894 5.42005 254.933 8.09587 253.841 11.0171C252.836 13.6237 252.096 15.5405 251.486 16.9903C250.866 18.4623 250.44 19.3064 250.09 19.8317C249.786 20.2888 249.595 20.4207 249.43 20.51C249.157 20.6585 248.769 20.7844 247.811 21.0388C239.138 23.326 234.3 25.9285 230.126 30.8946L207.98 80.9504ZM207.98 80.9504C209.461 83.5862 212.836 87.8698 216.173 91.5706M207.98 80.9504L216.173 91.5706M216.173 91.5706C217.823 93.5007 219.403 95.0202 220.659 96.1636M216.173 91.5706L220.659 96.1636M220.659 96.1636C220.795 96.2877 220.926 96.4043 221.05 96.5133M220.659 96.1636L221.05 96.5133M221.05 96.5133C221.179 96.2514 221.315 95.9646 221.46 95.6539C222.369 93.7032 223.513 90.9752 224.638 87.9471C224.638 87.9466 224.639 87.9461 224.639 87.9457L228.356 77.9169L225.817 73.0347C219.061 60.2214 220.869 41.8946 230.126 30.8952L221.05 96.5133ZM222.459 97.5954C222.48 97.6059 222.476 97.6018 222.449 97.5904C222.453 97.5926 222.456 97.5943 222.459 97.5954Z" stroke="#33C1B1" stroke-width="5"/>
<path d="M322.489 55.2212V109.608L355.216 109.416L387.847 109.127L388.133 98.8272L388.419 88.4311L368.573 88.2386L348.728 87.9498L348.441 76.206L348.155 64.366H365.902H383.553V54.2586V44.1513H365.902H348.251V33.0813V22.0114H368.287H388.419L388.133 11.6152L387.847 1.31535L355.216 1.02657L322.489 0.834047V55.2212Z" fill="primary.300"/>
<path d="M0 55.2212V109.608L32.7264 109.416L65.3575 109.127L65.6437 98.8272L65.93 88.4311L46.0842 88.2386L26.2384 87.9498L25.9522 76.206L25.6659 64.366H43.4126H61.0639V54.2586V44.1513H43.4126H25.7613V33.0813V22.0114H45.7979H65.93L65.6437 11.6152L65.3575 1.31535L32.7264 1.02657L0 0.834047V55.2212Z" fill="primary.300"/>
<path d="M399.773 1.31701C399.773 1.60579 407.502 13.5421 416.948 27.8849L434.217 53.8752L417.425 80.7319C408.265 95.556 500.728 107.877 500.728 108.166C500.728 108.455 407.216 108.551 415.23 108.455L429.733 108.166L438.893 92.4757C443.854 83.9085 448.243 76.8815 448.625 76.8815C449.006 76.8815 454.063 84.0048 459.883 92.7645L470.379 108.647H485.263C496.808 108.647 499.956 108.359 499.384 107.396C499.002 106.819 491.369 95.2673 482.591 81.887C473.718 68.4106 466.276 56.9556 465.99 56.2818C465.703 55.6079 472.859 43.2866 481.828 28.9438C490.701 14.6972 498.048 2.47213 498.048 1.89457C498.048 1.22075 493.659 0.835706 484.404 0.835706C472.478 0.835706 470.474 1.02823 469.234 2.47213C468.47 3.43474 464.463 10.0767 460.36 17.2C456.258 24.3233 452.441 30.9652 451.773 31.9278C450.819 33.3718 449.292 31.5428 439.847 17.2L429.065 0.835706H414.467C406.357 0.835706 399.773 1.02823 399.773 1.31701Z" fill="primary.300"/>
<path d="M575.428 4.39456C574.474 6.41603 570.562 14.9832 566.745 23.3579C558.731 41.0698 556.25 45.594 555.201 44.4389C554.819 44.0539 551.67 37.6044 548.331 30.1924L542.129 16.7159L527.626 16.4271L513.124 16.1383L517.894 25.0906C520.47 29.9998 527.054 42.7062 532.492 53.2949L542.415 72.547L542.892 90.8365L543.369 109.126H555.773H568.177L568.654 90.8365L569.131 72.547L587.068 37.7007C596.896 18.6411 604.91 2.46935 604.91 1.89178C604.91 1.21796 600.521 0.832919 591.076 0.832919H577.241L575.428 4.39456Z" fill="primary.300"/>
<path d="M647.368 1.99083C647.178 2.66466 638.686 26.1522 628.668 54.2603C618.554 82.2721 610.158 106.048 609.871 107.011C609.49 108.551 610.539 108.647 622.752 108.647H636.014L638.781 99.984C640.308 95.171 642.025 90.8393 642.693 90.2617C643.361 89.6841 651.567 89.4916 663.207 89.5879L682.671 89.8767L685.915 99.2139L689.064 108.647H702.708H716.256L696.887 54.9341L677.614 1.31701L662.73 1.02823C651.28 0.835706 647.75 1.02823 647.368 1.99083ZM669.218 49.4473C672.748 59.3621 675.515 68.1218 675.515 68.8919C675.515 69.8545 672.653 70.1433 662.634 70.1433C652.807 70.1433 649.754 69.8545 649.754 68.8919C649.754 68.2181 652.33 59.9397 655.479 50.4099C662.348 29.6176 662.062 30.2914 662.634 30.7727C662.825 31.0615 665.783 39.4362 669.218 49.4473Z" fill="primary.300"/>
<path d="M278.504 20.7603L274.211 32.119L277.455 38.376C281.844 47.1357 282.512 55.7028 279.554 65.4252C276.024 77.0727 270.203 82.6558 257.609 86.0249L253.315 87.18L249.117 97.9612C246.827 103.833 245.301 109.031 245.682 109.416C246.923 110.668 259.994 109.994 267.15 108.165C298.636 100.368 315.62 64.3663 302.834 32.6003C301.499 29.135 298.827 24.4182 297.014 22.0117C293.007 16.9099 285.279 9.59407 283.752 9.4978C283.18 9.4978 280.794 14.5996 278.504 20.7603Z" fill="primary.300"/>
</svg>
